<svg viewBox="0 0 73 24" fill="none" xmlns="http://www.w3.org/2000/svg"><path d="M62.88 23.2h-5.5l3.04-6.45-6.96-12.2h5.72l3.73 6.78h.22l3.1-6.78h5.55l-8.9 18.64Zm-10.73-4.7h-5.3v-17.75h5.3v17.75Zm-24.46 0v-13.95h5.3v2.17h.22a5.32 5.32 0 0 1 2.07-1.73 7.18 7.18 0 0 1 3.43-.79c1.76 0 3.13.47 4.1 1.4a5.2 5.2 0 0 1 1.45 3.93v8.97h-5.3v-7.76c0-.9-.25-1.57-.74-2.05a2.73 2.73 0 0 0-2.02-.72 3.72 3.72 0 0 0-3.2 1.85v8.68h-5.31Zm-14.76.45c-2.66 0-4.92-.4-6.76-1.19a9.2 9.2 0 0 1-4.12-3.23 8.21 8.21 0 0 1-1.38-4.66 8.1 8.1 0 0 1 1.38-4.63 9.13 9.13 0 0 1 4.12-3.26c1.84-.79 4.1-1.18 6.76-1.18 2.65 0 4.89.4 6.73 1.18a8.96 8.96 0 0 1 4.12 3.26 8.1 8.1 0 0 1 1.38 4.63 8.2 8.2 0 0 1-1.38 4.66 9.03 9.03 0 0 1-4.12 3.23 17.08 17.08 0 0 1-6.73 1.19Zm0-4.07c1.45 0 2.67-.22 3.67-.67a4.98 4.98 0 0 0 2.27-1.8c.51-.75.77-1.6.77-2.54 0-.93-.26-1.78-.77-2.54a4.98 4.98 0 0 0-2.27-1.8c-1-.44-2.22-.66-3.67-.66a9.3 9.3 0 0 0-3.7.66 5.16 5.16 0 0 0-2.27 1.8c-.5.76-.76 1.6-.76 2.54s.25 1.79.76 2.54a5.16 5.16 0 0 0 2.27 1.8c1.02.45 2.25.67 3.7.67Z" fill="#0E0E0E"/></svg>