<svg viewBox="0 0 26 26" fill="none" xmlns="http://www.w3.org/2000/svg"><g clip-path="url(#a)"><path d="M16.18 19.92h-2.7l-2.5-9.39-.36-1.34-.36 1.34-2.5 9.44h-2.7l-4.55-14.19h2.94l2.6 9.96h.72l2.46-9.96h2.82l2.47 9.96h.71l2.61-9.96 2.89-.04-4.55 14.18Z" fill="#0E0E0E" stroke="#0E0E0E" stroke-width=".738"/><path d="M23.36 15.5a2.41 2.41 0 0 1 2.49 2.5 2.41 2.41 0 0 1-2.5 2.48 2.41 2.41 0 0 1-2.48-2.48c0-1.44 1.1-2.5 2.49-2.5Z" fill="#0E0E0E"/><path d="M23.36 15.88c1.23 0 2.12.88 2.12 2.12 0 1.22-.89 2.11-2.12 2.11a2.04 2.04 0 0 1-2.12-2.11c0-1.23.93-2.12 2.12-2.13Z" stroke="#0E0E0E" stroke-opacity=".8" stroke-width=".738"/></g><defs><clipPath id="a"><path fill="#fff" d="M0 0h25.85v25.85h-25.85z"/></clipPath></defs></svg>