<svg viewBox="0 0 37 11" fill="none" xmlns="http://www.w3.org/2000/svg"><path d="M31.54 1.64a.7.7 0 0 1 .38.1c.25.13.42.4.42.71v2.28h2.2c.45 0 .8.36.8.8a.8.8 0 0 1-.8.8h-2.2v2.17a.8.8 0 0 1-.8.8h-6.16a.8.8 0 0 1-.8-.8v-3a.81.81 0 0 1 .8-.78h5.36v-1.48h-6.18l-2.93 5.45a.8.8 0 0 1-.78.65.79.79 0 0 1-.69-.4.62.62 0 0 1-.07-.14l-2.3-4.54-2.35 4.44c-.1.23-.25.44-.49.57a.79.79 0 0 1-1.03-.31l-.07-.15-2.83-5.55h-4.72v1.49h3.82c.44 0 .8.35.8.8a.8.8 0 0 1-.8.8h-3.82v2.2a.8.8 0 0 1-.8.8.8.8 0 0 1-.8-.8v-2.2h-2.26a.8.8 0 0 1-.8-.8c0-.45.36-.8.8-.8h2.21v-2.29a.8.8 0 0 1 .8-.81h6c.13 0 .25.03.36.1.17.07.31.2.4.38l2.37 4.65 2.37-4.44c.12-.24.18-.46.44-.59a.86.86 0 0 1 .35-.08c.2 0 .4.07.54.22.14.1.21.19.31.38l2.24 4.51 2.52-4.66c.06-.11.15-.2.26-.27a.82.82 0 0 1 .52-.19h7.4m-5.38 6.03h4.59v-1.35h-4.59v1.35Zm5.39-7.69h-7.41a2.53 2.53 0 0 0-2.2 1.29l-.01.02-.01.02-1.03 1.9s-1.18-2.33-1.54-2.61a2.45 2.45 0 0 0-2.66-.36c-.64.3-1 .88-1.3 1.53l-.76 1.44-.94-1.84a2.49 2.49 0 0 0-2.23-1.38h-6a2.44 2.44 0 0 0-2.44 2.44v.64h-.57a2.44 2.44 0 0 0 0 4.89h.57v.57a2.44 2.44 0 0 0 4.89 0v-.57h2.17c.46 0 .91-.13 1.28-.37l.97 1.89.16.31a2.45 2.45 0 0 0 3.15.94c.6-.29 1.12-.77 1.38-1.4l.7-1.54.87 1.7.16.31a2.45 2.45 0 0 0 4.37-.38c.37.9 1.25 1.52 2.27 1.52h6.16a2.41 2.41 0 0 0 2.44-2.4v-.57h.57a2.44 2.44 0 0 0 0-4.89h-.57v-.64c0-.9-.49-1.72-1.28-2.15a2.26 2.26 0 0 0-1.16-.31Z" fill="#0E0E0E"/></svg>