<svg viewBox="0 0 21 26" fill="none" xmlns="http://www.w3.org/2000/svg"><path fill-rule="evenodd" clip-rule="evenodd" d="m7.12 0 .24.03c.14.01.67.05 1.19.06.85.04.98.07 2.01.52l-.09.59.5.24c.48.23.5.24.5.53 0 .16-.05.67-.11 1.15a184.49 184.49 0 0 0-.37 3.13c-.01.13.03.16.56.2.45.04.69.1 1.05.28.46.24.47.24.42.82l1.09.05a3.9 3.9 0 0 1 2.08.54l-.06.6.56.03c.45.03.66.1 1.56.54l-.07.58.49.24c.5.24.5.24.5.54 0 .32 0 .32.96.8l-.04.48c-.02.28-.08.9-.14 1.38l-.22 1.82-.46 3.76h-.54c-.38 0-.54.03-.54.1l-.15 1.3-.19 1.64-1.04-.06-.1.62-.2 1.6-.23 1.89h-.32l-1.57-.07-3.41-.19c-1.2-.05-2.78-.14-3.52-.18l-1.82-.1a2.47 2.47 0 0 1-.92-.27l-.5-.24.13-1.32.14-1.33-.48-.24a1.87 1.87 0 0 1-.5-.28c-.01-.03.01-.38.06-.78.05-.4.08-.76.06-.8a2.56 2.56 0 0 0-.48-.27l-.49-.24s.02-.37.08-.8c.09-.77.08-.8-.06-.89a5.27 5.27 0 0 0-.51-.27c-.36-.17-.37-.17-.32-.46l.13-1.31-.5-.25c-.48-.22-.49-.24-.5-.54-.02-.3-.04-.32-.98-.82l.04-.4.17-1.43c.06-.56.13-1.14.2-1.53l.76.06c.41.02 1.03.07 1.36.1.33 0 .8.04 1.04.06.25.03.58.1.74.19.15.07.29.13.31.11.02 0 .11-.55.19-1.22l.26-2.15.37-3.22.34-2.95.11-.84c.03-.14.08-.15 1.12-.1l.11-1.03Zm1.02 2.58-.2 1.68-.32 2.85-.35 2.88-.22 1.94-.19 1.64a241.75 241.75 0 0 1-.4 3.57c0 .12-.06.12-.7.06-.49-.04-.79-.1-1.04-.24a3.2 3.2 0 0 0-.4-.17.85.85 0 0 0-.05.32l-.02.33 1.02.48c-.07.45-.1.82-.13 1.1l-.06.5 1.04.49a30.6 30.6 0 0 1-.16 1.3l-.05.34c1.04.46 1.07.49 1.03.68-.02.1-.07.46-.1.8l-.05.6c.46.05 1.32.1 2.2.14l2.4.12a311.72 311.72 0 0 1 2.67.15 51.67 51.67 0 0 0 .28-2.34c.03-.29.08-.57.12-.63.04-.08.18-.1.55-.09.41.02.5 0 .53-.1l.1-.94.17-1.33.06-.6c0-.05.23-.07.56-.06l.55.02c.13-1.3.3-2.76.45-4.07l.27-2.38-1-.5.07-.61c-.98 0-1.1-.03-1.57-.28-.5-.27-.52-.28-.52-.54 0-.23-.03-.29-.17-.32a2.93 2.93 0 0 0-.4-.03h-.22c-.2 1.9-.29 2.59-.32 2.77l-.05.32c-1.27-.07-1.4-.1-1.85-.34-.38-.2-.5-.3-.47-.4.01-.07.05-.34.07-.6l.2-1.64.14-1.22c0-.03-.19-.06-.43-.04l-.43.01-.48 4.04c0 .01-.3 0-.66-.03a2.49 2.49 0 0 1-1.15-.29 2.9 2.9 0 0 1-.51-.28 1773.82 1773.82 0 0 0 .97-8.51c.11-.92.12-1.22.05-1.26a1.13 1.13 0 0 0-.4-.06c-.27 0-.32.03-.35.17-.02.09-.06.36-.08.6Zm-5.63 10.98c-.04.35-.06.64-.03.66l.5.25c.44.24.44.24.43.53 0 .28 0 .3.4.5l.4.2.13-1.18.06-.57c-1-.48-1.01-.5-1.01-.76v-.27h-.8l-.08.64Z" fill="#141414"/></svg>