<svg viewBox="0 0 73 22" fill="none" xmlns="http://www.w3.org/2000/svg"><path d="M27.51 3.54c-.4-.36-.72-.68-.98-.97-1.97-2.14-4.25-.23-4.65 1.95 0 .03-.02.05-.04.07-.04.04-.05.03-.04-.02a5.28 5.28 0 0 1 3.26-4.16 5.28 5.28 0 0 1 5.67 1 1955.51 1955.51 0 0 1 4.36 4.34h-.05a3.97 3.97 0 0 0-2.62-1c-.73 0-1.52.36-2.29.33-1.34-.06-1.74-.73-2.62-1.54Z" fill="#0E0E0E"/><path d="M53.24 19.49a.14.14 0 0 0-.17-.04 7.94 7.94 0 0 1-2.02 1.7c-3.12 1.66-5.43.6-7.6-1.79-.04-.04-.08-.04-.12 0-1.16 1.26-2.18 2.19-3.89 2.52-2.44.48-4.1-.93-5.7-2.52a.13.13 0 0 0-.13-.03.13.13 0 0 0-.05.03c-.64.67-1.3 1.39-2.08 1.84-3.12 1.78-5.27.3-7.46-1.9a.1.1 0 0 0-.15 0c-.82.84-1.36 1.36-1.6 1.55-1.84 1.42-3.8 1.52-5.86.3-.69-.41-1.47-1.26-2.13-1.92a2780 2780 0 0 0-10.92-10.8c-1.19-1.18-1.92-1.27-3.17-.15-.24.2-.25.19-.05-.05a5.37 5.37 0 0 1 4.03-2.05c2.13-.1 3.67 1.21 5.03 2.7a.1.1 0 0 0 .16-.02 5.34 5.34 0 0 1 7.78-1.64c.38.28.97.83 1.78 1.68.05.06.1.05.14-.01 1.52-2.44 4.32-3.43 6.97-2.16.96.47 1.86 1.39 2.65 2.2.04.04.09.04.13 0 .66-.58 1.35-1.36 1.97-1.8 2.9-2.05 5.4-.5 7.48 1.72a.2.2 0 0 0 .29-.01 7.17 7.17 0 0 1 4.17-2.6c2.26-.32 3.72 1.08 5.25 2.65a.1.1 0 0 0 .14 0c.91-.87 1.65-1.75 2.92-2.28 2.77-1.15 4.71.26 6.5 2.18a.16.16 0 0 0 .23 0l1.26-1.23c2.07-1.95 5.23-2.25 7.34-.16a622.8 622.8 0 0 1 4.46 4.47h-.05a4 4 0 0 0-2.53-.93c-.7.01-1.7.38-2.42.36-1.14-.04-1.77-.8-2.58-1.68-.05-.05-.1-.05-.14 0l-2.32 2.24c-.04.04-.04.08 0 .12a608.3 608.3 0 0 0 7.65 7.57c2 1.94 4.15.01 4.5-2.14.01-.03.03-.04.05 0 .02.01.02.04.02.08a5.39 5.39 0 0 1-8.3 3.61 14.4 14.4 0 0 1-2-1.86.1.1 0 0 0-.08 0 10.56 10.56 0 0 1-2.17 1.98c-2.84 1.65-5.19.4-7.21-1.73Zm7.2-8.01 2.26-2.22c.04-.04.04-.07 0-.1-1.42-1.66-3.2-1.79-4.6.02-.03.04-.03.08.01.12l2.15 2.18a.13.13 0 0 0 .18 0Zm-26.94-1.9c-1.29-1.64-2.98-2.14-4.58-.56-.05.05-.05.1 0 .14l2.48 2.47c.05.05.1.05.15 0l1.95-1.93c.03-.04.04-.08 0-.12Zm9.35-.36c-1.22-1.45-2.93-1.56-4.22-.1a.1.1 0 0 0 0 .13l2.3 2.3a.2.2 0 0 0 .28 0l1.9-1.88c.06-.04.06-.1.03-.15-.08-.12-.23-.23-.3-.3Zm9.9.18c-1.26-1.5-2.92-1.87-4.37-.3a.13.13 0 0 0-.04.1c0 .04.02.07.04.1l2.27 2.25c.05.05.1.05.15 0l1.94-1.88c.1-.09.1-.18.02-.27Zm-17.1 2.31a.05.05 0 0 0 .01-.03v-.04l-1.97-1.92a.05.05 0 0 0-.06 0l-2.05 2.05a.05.05 0 0 0-.01.03.04.04 0 0 0 .01.04l1.96 1.93a.05.05 0 0 0 .07 0l2.04-2.06Zm7.81-1.91a.1.1 0 0 0-.1-.02.1.1 0 0 0-.03.02l-2.01 1.99a.1.1 0 0 0 0 .13l1.8 1.8a.1.1 0 0 0 .11.03.1.1 0 0 0 .03-.02l2.01-2a.1.1 0 0 0 0-.13l-1.81-1.8Zm11.43 1.85a.1.1 0 0 0 0-.14l-1.68-1.67a.1.1 0 0 0-.14 0l-2 2a.1.1 0 0 0 0 .13l1.68 1.67a.1.1 0 0 0 .13 0l2.01-2Zm-35.72 6.94 1.94-1.93a.16.16 0 0 0 0-.22l-5.94-5.92a1.9 1.9 0 0 0-1.18-.54c-.21 0-.42.02-.61.09a1.38 1.38 0 0 0-.92 1.43c.01.22.07.43.16.63.1.2.22.39.38.55l5.95 5.9a.16.16 0 0 0 .22 0Zm4.82-4.8 2-2a.11.11 0 0 0 0-.16l-1.15-1.15c-.31-.3-.72-.48-1.14-.5-.42 0-.82.14-1.1.43l-.01.01a1.42 1.42 0 0 0-.42 1.1 1.64 1.64 0 0 0 .5 1.13l1.16 1.14a.11.11 0 0 0 .08.03.11.11 0 0 0 .08-.03Zm4.74.62a.05.05 0 0 0 .01-.03v-.03l-2.56-2.52a.05.05 0 0 0-.06 0l-2.09 2.1a.04.04 0 0 0 0 .06l2.55 2.51a.05.05 0 0 0 .06 0l2.1-2.09Zm9.6 0a.07.07 0 0 0 0-.1l-2.42-2.4a.07.07 0 0 0-.1 0l-2.02 2a.07.07 0 0 0 0 .1l2.43 2.41a.07.07 0 0 0 .1 0l2.02-2.01Zm9.66-.06a.04.04 0 0 0 .01-.05v-.01l-2.36-2.34h-.02a.04.04 0 0 0-.03 0h-.02l-2.07 2.07v.02a.04.04 0 0 0 0 .04l2.36 2.34a.04.04 0 0 0 .03.01.04.04 0 0 0 .03-.01l2.07-2.07Zm9.6-.05a.1.1 0 0 0 0-.15l-2.18-2.16a.1.1 0 0 0-.15 0l-2 2.01a.1.1 0 0 0-.03.12l.02.04 2.19 2.15a.1.1 0 0 0 .15 0l2-2Zm-26.77 2.22a.08.08 0 0 0 .02-.05.07.07 0 0 0-.02-.05l-1.9-1.9a.08.08 0 0 0-.1 0l-2.08 2.07a.08.08 0 0 0-.02.08l.02.02 1.9 1.9a.08.08 0 0 0 .06.02.07.07 0 0 0 .05-.03l2.07-2.06Zm7.79-1.95a.07.07 0 0 0-.1 0l-2.04 2a.07.07 0 0 0 0 .1l1.84 1.86a.07.07 0 0 0 .1 0l2.04-2a.07.07 0 0 0 0-.1l-1.84-1.86Zm11.45 1.88a.1.1 0 0 0 0-.14l-1.7-1.66a.1.1 0 0 0-.07-.03.1.1 0 0 0-.07.03l-2 2.02a.1.1 0 0 0-.03.07.1.1 0 0 0 .03.07l1.7 1.66a.1.1 0 0 0 .14 0l2-2.02Zm9.14 3.6c1.42 1.4 2.35.08 3.31-.83a.12.12 0 0 0 .03-.13.12.12 0 0 0-.03-.04l-4.42-4.4a.1.1 0 0 0-.07-.03.1.1 0 0 0-.07.03l-2.02 2a.1.1 0 0 0-.03.06c0 .03.01.06.03.08 1.08 1.1 2.17 2.19 3.27 3.26Zm-37.8-3.32c-.06-.07-.13-.07-.2 0l-1.97 1.96c-.04.04-.04.09 0 .13.85.92 2.07 2.44 3.24 1.61a8.37 8.37 0 0 0 1.34-1.3.1.1 0 0 0-.02-.07l-2.38-2.33Zm7.55 2.14c.67.75 2.15 2.5 3.23 1.52a23 23 0 0 0 1.23-1.22c.05-.05.05-.1 0-.15l-2.28-2.31a.11.11 0 0 0-.16 0l-2.02 2.03c-.04.04-.04.09 0 .13Zm11.89-2.1a.09.09 0 0 0-.06-.03.1.1 0 0 0-.07.03l-2.02 2c-.03.04-.04.08 0 .13.44.5.91.96 1.43 1.38 1.22 1 2.16-.42 2.95-1.13a.12.12 0 0 0 0-.16l-2.23-2.22Zm8.74 3.32c1.33 1.25 2.3-.16 3.12-.94.05-.05.06-.1 0-.16l-2.13-2.17c-.05-.06-.1-.06-.15 0l-2.02 2c-.05.05-.05.1 0 .15l1.18 1.12Z" fill="#0E0E0E"/></svg>