<svg viewBox="0 0 38 31" fill="none" xmlns="http://www.w3.org/2000/svg"><path d="m32.59 19.3-9.07 8.89m9.07-8.9 4-16.45-21.48-2.43-5.12 16.23m22.6 2.65-22.6-2.65m22.6 2.65v1.94l-9.07 8.78m0-1.82-23.14-3.81m23.14 3.8v1.83m-23.14-5.63 9.61-7.74m-9.62 7.74v1.6l23.15 4.03m-13.68-5.88 7.34 1.21m-2.57-2.12-4.2-.7m4.2.7 4.65.69m-4.65-.7 3.9-3.86m-8.1 3.18-4.14-.64 2.7-2.54m1.44 3.18 3.76-3.8m5.09 5.18 4.97.8 2.82-2.7m-7.8 1.9 4.21-3.93m-9.29-1.24-3.68-.5-1.53 1.11m5.21-.61 4.34.61m0 0 4.95.63m0 0 5.17.7-1.58 1.32m0 0-18.09-2.65m25.33-15.19-3.46 13.26-18.64-2.38 4.02-12.92 18.08 2.04Z" stroke="#000" stroke-width=".747" stroke-linecap="round"/></svg>