<svg viewBox="0 0 25 31" fill="none" xmlns="http://www.w3.org/2000/svg"><path d="m8.84 2.56-7.25 20.69a3.4 3.4 0 0 0 3.2 4.53h9.63a3.4 3.4 0 0 0 3.28-2.5l5.76-20.68a3.4 3.4 0 0 0-3.28-4.32h-8.13a3.4 3.4 0 0 0-3.21 2.28Z" stroke="#04251A" stroke-width=".567"/><path fill-rule="evenodd" clip-rule="evenodd" d="M8.74 2.75a3.68 3.68 0 0 1 3.48-2.47h8.13a3.7 3.7 0 0 1 3.55 4.68l-5.76 20.69a3.68 3.68 0 0 1-3.55 2.7h-9.62a3.68 3.68 0 0 1-3.48-4.91l7.25-20.7Zm.05.93c.51-1.47 1.55-3.11 3.11-3.11h9.07c2.44 0 3.58 4.3 2.93 6.65l-5.2 20.7a3.68 3.68 0 0 1-3.54 2.69h-10.2c-2.53 0-4.47-4.03-3.63-6.42l7.46-20.5Z" fill="#04251A"/><path d="M6.8 26.36h5.1" stroke="#04251A" stroke-width=".567" stroke-linecap="round"/><path d="M17.92 1.42h-4.25a.57.57 0 0 0-.5.31l-.29.57c-.19.38.09.82.5.82h4.35c.24 0 .46-.16.54-.39l.19-.57a.57.57 0 0 0-.54-.74Z" fill="#04251A"/><path d="m16.44 23.52 5.38-18.7" stroke="#04251A" stroke-width=".567" stroke-linecap="round"/><path d="M9.62 4.91a.28.28 0 1 0-.53-.19l.26.1.27.1Zm-6.79 18.33.27.1 6.52-18.43-.27-.1-.26-.09-6.52 18.43.26.1Zm11.48.28h-9.2c.37-.47 1.98-1.41 1.98-1.41l1.98-3.97.48 1.59c.14.47.78.55 1.03.12l2.17-3.7v2c0 .61.83.8 1.08.25l6.01-12.73-4.98 17.44a.57.57 0 0 1-.55.41Z" fill="#04251A"/><path d="M7.94 15.02h6.23m-4.53-3.97h6.23m-4.53-5.1h7.08" stroke="#04251A" stroke-width=".567" stroke-linecap="round"/></svg>