<svg viewBox="0 0 42 42" fill="none" xmlns="http://www.w3.org/2000/svg"><path d="M31.62 22.34c-7.94-2.63-20.94-2.55-20.94-7.04 0-2.95 4.62-5.33 10.32-5.33 5.71 0 10.33 2.38 10.33 5.33v4.46c5.6-1.88 9.34-5.24 9.34-9.08 0-5.9-8.81-10.68-19.67-10.68-10.86 0-19.66 4.78-19.66 10.68 0 3.77 3.6 7.07 9.04 8.99 10.62 3.75 20.94 2.67 20.94 7.03 0 2.95-4.62 5.34-10.32 5.34s-10.33-2.39-10.33-5.34v-4.46c-5.6 1.88-9.34 5.25-9.34 9.08 0 5.9 8.8 10.68 19.66 10.68s19.68-4.78 19.68-10.68c0-3.77-3.58-7.18-9.05-8.98Z" fill="#0E0E0E"/></svg>