<svg viewBox="0 0 25 29" fill="none" xmlns="http://www.w3.org/2000/svg"><path fill-rule="evenodd" clip-rule="evenodd" d="M9.78 1.36a.74.74 0 1 0-.4.11c-.2.09-.35.2-.48.37-.4.8-.2 1.4.6 1.8-.31.25-.51.57-.6.96-.2.82-.02 1.53.55 2.12l.09 1.93a6.97 6.97 0 0 0 1.43 3.73c-.54.14-1.06.32-1.57.55-2.07 1.26-3.6 3-4.6 5.2a2.22 2.22 0 0 0-1.75 2.2c-1.17-.32-1.73.14-1.65 1.39.2.5.59.77 1.15.83.54-.1.86-.4.96-.92.29.1.56.25.83.41l.7.14c1.53-.22 2.2-1.11 2.02-2.67.29-.48.56-.97.82-1.47.79-1.1 1.75-2 2.9-2.72.96-.4 1.62-.11 1.98.88a9.95 9.95 0 0 1-.6 5.8c-.3.23-.57.5-.78.82-.45 1.58.12 2.57 1.7 3-.36 1.1.03 1.71 1.2 1.83l-.03.04a.73.73 0 0 0 .47 1.3.74.74 0 0 0 .28-1.42v-.01l-.03-.01a1.38 1.38 0 0 1-.32-.08c.19-.17.32-.37.41-.6.16-.67-.04-1.2-.6-1.56.16-.17.3-.36.42-.56.19-.72.17-1.44-.05-2.16.3-1.04.54-2.1.7-3.17.26-1.83 0-3.58-.8-5.25a8.52 8.52 0 0 0 4.89-2.76c1.42-.07 2.22-.8 2.39-2.2l.5.18c.93-.22 1.3-.78 1.1-1.67a.73.73 0 0 0 1.24-.54.74.74 0 1 0-1.44.23c-.12-.1-.25-.2-.39-.28-.8-.26-1.34 0-1.6.78-.19-.24-.42-.4-.7-.5-1.76-.3-2.67.46-2.71 2.25a7.77 7.77 0 0 1-2.53 1.8c-.77.33-1.5.27-2.21-.19a4.39 4.39 0 0 1-1.43-2.99c-.18-.77 0-1.41.55-1.93.67-1.7.14-2.77-1.6-3.22.32-1.02 0-1.61-1-1.77Zm5.58 5.2a2.09 2.09 0 0 0-1.67.15c-.5.29-.85.74-1.07 1.34-.2.79-.1 1.47.28 2.06.28.42.72.7 1.2.84.99.29 1.78.03 2.4-.76a2.4 2.4 0 0 0 .46-1.64 2.12 2.12 0 0 0-1.6-1.99Zm-14.62 16.26a.74.74 0 1 0 0-1.47.74.74 0 0 0 0 1.47Z" fill="#191919"/></svg>